<?xml version="1.0" standalone="no"?>
<!DOCTYPE svg PUBLIC "-//W3C//DTD SVG 20010904//EN"
 "http://www.w3.org/TR/2001/REC-SVG-20010904/DTD/svg10.dtd">
<svg version="1.0" xmlns="http://www.w3.org/2000/svg"
 width="512.000000pt" height="512.000000pt" viewBox="0 0 512.000000 512.000000"
 preserveAspectRatio="xMidYMid meet">

<g transform="translate(0.000000,512.000000) scale(0.100000,-0.100000)"
fill="#000000" stroke="none">
<path d="M1285 4899 c-314 -47 -565 -283 -629 -591 -14 -69 -16 -262 -16
-1781 0 -1664 0 -1706 20 -1781 28 -111 73 -190 155 -271 81 -81 162 -127 271
-155 134 -34 274 -20 392 39 33 17 272 163 531 325 330 206 483 296 511 301
84 14 102 5 593 -302 260 -162 498 -308 529 -324 88 -44 177 -62 283 -56 245
14 445 168 527 406 l23 66 0 1750 c0 1463 -2 1759 -14 1804 -69 269 -273 478
-538 554 l-78 22 -1250 1 c-687 1 -1277 -2 -1310 -7z m2587 -452 c62 -30 115
-83 150 -149 l23 -43 3 -1703 c2 -1559 1 -1706 -14 -1738 -24 -50 -68 -77
-133 -82 l-56 -4 -471 295 c-259 162 -498 309 -531 325 -172 87 -393 88 -562
2 -31 -15 -270 -162 -531 -325 l-475 -297 -56 4 c-65 5 -109 32 -133 82 -15
31 -16 185 -16 1718 0 1114 4 1695 10 1720 14 49 66 125 112 161 20 16 61 38
90 48 50 18 112 18 1293 16 l1240 -2 57 -28z"/>
<path d="M1611 3814 c-90 -45 -134 -140 -110 -238 16 -67 85 -138 151 -154 34
-9 282 -12 911 -12 981 0 936 -3 1005 76 96 109 68 264 -59 328 l-53 26 -896
0 -896 0 -53 -26z"/>
</g>
</svg>
