<?xml version="1.0" standalone="no"?>
<!DOCTYPE svg PUBLIC "-//W3C//DTD SVG 20010904//EN"
 "http://www.w3.org/TR/2001/REC-SVG-20010904/DTD/svg10.dtd">
<svg version="1.0" xmlns="http://www.w3.org/2000/svg"
 width="512.000000pt" height="512.000000pt" viewBox="0 0 512.000000 512.000000"
 preserveAspectRatio="xMidYMid meet">

<g transform="translate(0.000000,512.000000) scale(0.100000,-0.100000)"
fill="#000000" stroke="none">
<path d="M1360 4675 c-284 -61 -513 -269 -612 -555 l-33 -95 -3 -1620 c-1
-1032 1 -1637 7 -1666 29 -134 87 -222 182 -274 70 -38 185 -46 274 -20 80 23
108 38 685 358 278 154 526 289 552 298 101 39 240 33 333 -13 22 -12 276
-151 564 -311 288 -160 552 -302 585 -316 81 -33 212 -41 285 -16 64 21 144
92 177 156 57 113 54 25 54 1769 0 1555 -1 1608 -20 1686 -74 312 -323 554
-633 618 -67 14 -213 16 -1204 15 -921 0 -1140 -3 -1193 -14z m734 -1355 c147
-45 247 -61 416 -67 186 -7 321 10 503 63 135 39 177 40 228 4 34 -25 69 -90
69 -130 0 -42 -37 -108 -72 -130 -44 -27 -166 -65 -318 -97 -116 -25 -143 -27
-360 -27 -217 0 -244 2 -360 27 -152 32 -274 70 -318 97 -35 22 -71 87 -72
130 0 45 42 113 85 137 53 30 84 29 199 -7z"/>
</g>
</svg>
