<?xml version="1.0" standalone="no"?>
<!DOCTYPE svg PUBLIC "-//W3C//DTD SVG 20010904//EN"
 "http://www.w3.org/TR/2001/REC-SVG-20010904/DTD/svg10.dtd">
<svg version="1.0" xmlns="http://www.w3.org/2000/svg"
 width="512.000000pt" height="512.000000pt" viewBox="0 0 512.000000 512.000000"
 preserveAspectRatio="xMidYMid meet">

<g transform="translate(0.000000,512.000000) scale(0.100000,-0.100000)"
fill="#000000" stroke="none">
<path d="M2374 4640 c-39 -10 -102 -34 -140 -53 -63 -32 -1407 -944 -1531
-1039 -114 -87 -214 -246 -253 -402 -19 -76 -20 -113 -20 -1076 0 -1129 -4
-1067 82 -1240 34 -69 60 -103 138 -180 77 -78 111 -104 180 -138 47 -23 121
-51 164 -62 77 -20 116 -20 1566 -20 1450 0 1489 0 1566 20 43 11 117 39 164
62 69 34 103 60 180 138 78 77 104 111 138 180 86 173 82 111 82 1240 0 963
-1 1000 -20 1076 -37 148 -127 296 -235 387 -73 63 -1479 1019 -1548 1054
-145 73 -354 95 -513 53z m761 -3264 c35 -15 65 -59 65 -96 0 -37 -30 -81 -65
-96 -51 -21 -1099 -21 -1150 0 -35 15 -65 59 -65 96 0 36 30 81 63 95 48 21
1102 22 1152 1z"/>
</g>
</svg>
